<?xml version="1.0" standalone="no"?>
<!DOCTYPE svg PUBLIC "-//W3C//DTD SVG 20010904//EN"
 "http://www.w3.org/TR/2001/REC-SVG-20010904/DTD/svg10.dtd">
<svg version="1.0" xmlns="http://www.w3.org/2000/svg"
 width="300.000000pt" height="237.000000pt" viewBox="0 0 300.000000 237.000000"
 preserveAspectRatio="xMidYMid meet">

<g transform="translate(0.000000,237.000000) scale(0.100000,-0.100000)"
fill="#000000" stroke="none">
<path d="M1443 2336 c-186 -87 -117 -341 92 -341 179 1 269 188 146 305 -66
63 -152 76 -238 36z"/>
<path d="M1703 2302 c48 -56 60 -137 29 -207 l-18 -39 95 -75 c189 -147 210
-161 252 -161 52 0 85 17 99 51 20 48 5 92 -48 140 -78 73 -371 294 -398 301
-24 6 -25 5 -11 -10z"/>
<path d="M1311 2303 c-30 -12 -367 -247 -400 -278 -44 -43 -53 -107 -22 -146
23 -30 84 -49 123 -38 22 6 338 215 338 223 0 2 -7 20 -15 39 -22 53 -19 107
10 161 l24 46 -22 -1 c-12 0 -28 -3 -36 -6z"/>
<path d="M1308 2017 c-26 -18 -48 -38 -48 -45 0 -12 29 -132 61 -254 l10 -38
187 0 188 0 37 152 38 153 -33 27 c-39 33 -42 33 -76 9 -76 -52 -181 -54 -262
-3 -28 18 -52 32 -53 31 -1 0 -23 -15 -49 -32z"/>
<path d="M715 1921 c-33 -14 -358 -299 -372 -326 l-14 -25 49 0 c49 0 138 -36
162 -65 10 -11 37 8 153 109 78 68 148 131 156 140 7 9 16 36 18 60 5 37 1 48
-23 75 -31 34 -90 49 -129 32z"/>
<path d="M2189 1881 c-24 -24 -29 -38 -29 -77 0 -46 3 -51 58 -104 32 -30 98
-88 146 -129 l87 -74 22 21 c34 32 91 52 146 52 45 0 49 2 44 21 -3 12 -63 71
-132 132 -205 179 -216 187 -268 187 -36 0 -50 -6 -74 -29z"/>
<path d="M1256 1588 c10 -13 76 -84 146 -159 l127 -137 123 132 c68 72 134
144 147 159 l24 27 -293 0 -293 0 19 -22z"/>
<path d="M1805 1520 l-70 -70 85 -85 c50 -50 80 -88 75 -93 -100 -85 -155
-136 -153 -143 5 -16 121 -159 128 -159 4 0 83 66 175 146 l167 146 -163 164
c-90 90 -166 164 -169 164 -3 0 -37 -32 -75 -70z"/>
<path d="M1110 1507 c-42 -39 -111 -106 -154 -147 l-79 -75 84 -78 c46 -43
121 -113 167 -154 l82 -76 43 49 c23 26 51 59 62 73 l19 24 -83 77 -83 76 76
68 c42 37 76 72 76 77 0 10 -118 152 -129 156 -3 2 -40 -30 -81 -70z"/>
<path d="M2283 1551 l-63 -14 0 -192 0 -192 56 -12 57 -13 59 60 60 59 -21 41
c-24 48 -27 125 -6 162 8 14 14 28 15 32 0 3 -21 24 -47 45 l-48 39 -62 -15z"/>
<path d="M335 1550 c-129 -30 -191 -150 -135 -260 45 -89 177 -127 269 -78 99
51 135 150 89 238 -40 75 -141 120 -223 100z"/>
<path d="M609 1524 c-24 -21 -45 -39 -47 -40 -2 -1 4 -17 13 -35 23 -44 17
-138 -12 -178 l-21 -28 58 -58 59 -59 63 15 63 14 3 187 2 187 -38 10 c-94 26
-97 26 -143 -15z"/>
<path d="M2545 1545 c-78 -28 -135 -122 -121 -198 27 -145 210 -204 323 -104
85 74 85 189 0 264 -58 51 -128 64 -202 38z"/>
<path d="M1385 1099 c-77 -84 -141 -156 -143 -160 -2 -5 128 -9 288 -9 169 0
290 4 288 9 -3 10 -278 305 -287 309 -4 1 -69 -66 -146 -149z"/>
<path d="M2327 1101 l-137 -139 0 -47 c0 -42 5 -52 39 -86 34 -34 44 -39 87
-39 l47 0 149 147 c109 108 151 157 158 183 16 58 15 60 -45 60 -56 0 -116 19
-145 45 -15 13 -31 1 -153 -124z"/>
<path d="M485 1204 c-30 -17 -55 -24 -97 -24 l-58 0 0 -47 0 -47 158 -157
c131 -131 163 -159 194 -164 79 -15 154 59 144 139 -4 35 -21 56 -148 183 -78
78 -145 143 -148 142 -3 0 -23 -12 -45 -25z"/>
<path d="M1373 589 c-37 -11 -57 -40 -48 -69 7 -21 42 -43 88 -54 38 -9 36
-36 -3 -36 -16 0 -30 5 -30 10 0 13 -57 13 -65 1 -3 -5 7 -19 21 -30 62 -49
186 -11 171 51 -5 20 -19 31 -54 44 -60 22 -70 31 -56 45 9 9 18 8 36 -4 24
-15 67 -13 67 3 0 13 -30 40 -43 40 -7 0 -21 2 -32 4 -11 3 -35 0 -52 -5z"/>
<path d="M2244 593 c-41 -8 -69 -50 -69 -105 0 -66 33 -98 103 -98 50 1 72 12
91 47 10 20 9 23 -16 29 -21 6 -30 2 -41 -14 -32 -48 -79 -10 -68 53 4 18 14
39 22 46 14 11 20 9 38 -14 20 -25 59 -36 69 -19 11 17 -15 54 -48 67 -35 15
-42 16 -81 8z"/>
<path d="M2590 587 c-56 -19 -78 -94 -45 -156 17 -34 32 -41 91 -41 63 0 94
32 94 95 0 59 -13 83 -55 101 -40 16 -40 16 -85 1z m68 -101 c-2 -40 -7 -52
-22 -54 -24 -5 -36 14 -36 60 0 45 25 75 47 57 9 -9 13 -28 11 -63z"/>
<path d="M87 528 c-14 -35 -33 -80 -41 -100 l-16 -38 31 0 c22 0 32 5 36 20 4
16 14 20 43 20 30 0 40 -5 45 -20 5 -15 15 -20 41 -20 l34 0 -21 53 c-12 28
-29 72 -39 97 -16 40 -21 45 -52 48 -35 3 -36 2 -61 -60z m63 -17 c0 -5 3 -16
6 -25 4 -11 0 -16 -14 -16 -15 0 -18 5 -14 25 4 23 22 36 22 16z"/>
<path d="M290 490 l0 -100 66 0 c59 0 68 3 95 29 22 23 29 39 29 69 0 22 -3
48 -6 57 -11 27 -60 45 -124 45 l-60 0 0 -100z m108 48 c7 -7 12 -28 12 -48 0
-40 -14 -60 -42 -60 -15 0 -18 9 -18 60 0 51 3 60 18 60 10 0 23 -5 30 -12z"/>
<path d="M530 491 l0 -101 25 0 c24 0 25 3 25 57 0 64 8 63 31 -5 12 -37 21
-48 41 -50 22 -3 27 3 44 54 l19 58 5 -55 c5 -52 6 -54 38 -57 l32 -3 0 100 0
101 -49 0 c-44 0 -50 -3 -55 -25 -3 -13 -11 -37 -17 -52 l-11 -28 -17 50 c-17
50 -18 50 -64 53 l-47 3 0 -100z"/>
<path d="M840 490 l0 -100 35 0 35 0 0 100 0 100 -35 0 -35 0 0 -100z"/>
<path d="M964 577 c-3 -8 -4 -52 -2 -98 3 -83 3 -84 30 -87 27 -3 27 -2 30 59
l3 62 34 -62 c29 -51 39 -61 62 -61 15 0 29 4 31 10 2 5 2 50 0 100 -3 87 -4
90 -27 90 -21 0 -24 -5 -27 -47 l-3 -48 -28 48 c-26 41 -33 47 -63 47 -20 0
-37 -6 -40 -13z"/>
<path d="M1210 489 l0 -100 33 3 32 3 3 98 3 97 -36 0 -35 0 0 -101z"/>
<path d="M1530 570 c0 -15 7 -20 25 -20 25 0 25 -1 25 -80 l0 -80 35 0 35 0 0
80 0 80 30 0 c23 0 30 4 30 20 0 19 -7 20 -90 20 -83 0 -90 -1 -90 -20z"/>
<path d="M1730 490 l0 -100 35 0 c34 0 35 1 35 40 0 22 4 40 10 40 5 0 19 -18
30 -40 l20 -40 65 0 c54 0 66 3 75 20 7 14 21 20 45 20 25 0 35 -5 40 -20 5
-15 15 -20 41 -20 l34 0 -21 53 c-12 28 -28 72 -38 97 -15 41 -20 45 -52 48
l-36 3 -39 -95 c-21 -53 -41 -96 -44 -96 -3 0 -15 17 -27 38 -21 38 -21 39 -2
55 25 22 24 52 -1 77 -16 16 -33 20 -95 20 l-75 0 0 -100z m104 64 c19 -7 21
-40 4 -47 -29 -10 -53 25 -31 46 8 8 8 8 27 1z m220 -50 c10 -26 7 -34 -13
-34 -14 0 -17 6 -13 25 5 28 17 33 26 9z"/>
<path d="M2420 490 l0 -100 30 0 30 0 0 100 0 100 -30 0 -30 0 0 -100z"/>
<path d="M2780 490 c0 -99 0 -100 25 -100 23 0 24 4 27 62 l3 63 35 -60 c31
-51 41 -60 68 -63 l32 -3 0 100 0 101 -29 0 c-28 0 -30 -2 -33 -47 l-3 -48
-25 48 c-22 44 -27 47 -62 47 l-38 0 0 -100z"/>
<path d="M2098 225 c-59 -33 -44 -85 32 -110 29 -10 49 -22 47 -28 -6 -19 -37
-20 -56 -3 -12 11 -25 13 -46 8 l-30 -8 27 -27 c37 -37 114 -38 155 -3 24 21
26 27 18 52 -8 22 -22 33 -63 48 -28 10 -52 23 -52 28 0 17 31 21 46 6 18 -18
64 -12 64 9 0 16 -58 43 -92 43 -13 -1 -35 -7 -50 -15z"/>
<path d="M2555 231 c-30 -13 -47 -37 -43 -63 3 -21 16 -31 82 -60 16 -7 28
-17 28 -23 -2 -16 -48 -17 -60 -2 -12 15 -62 12 -62 -3 0 -5 12 -18 26 -29 49
-39 147 -22 165 27 11 29 -26 69 -71 78 -16 4 -34 12 -40 19 -17 21 6 28 44
14 18 -7 42 -9 52 -5 17 6 17 8 -3 27 -22 23 -87 34 -118 20z"/>
<path d="M350 130 l0 -100 55 0 c79 0 120 20 135 64 15 47 5 91 -27 116 -20
16 -41 20 -94 20 l-69 0 0 -100z m126 23 c8 -31 -13 -76 -39 -81 -14 -3 -17 5
-17 56 0 32 3 62 6 65 12 12 44 -13 50 -40z"/>
<path d="M590 130 l0 -100 85 0 c78 0 85 2 85 20 0 17 -7 20 -50 20 -47 0 -50
2 -50 25 0 23 4 25 40 25 29 0 40 4 40 15 0 11 -11 15 -40 15 -36 0 -40 3 -40
25 0 23 3 25 50 25 38 0 50 4 50 15 0 12 -16 15 -85 15 l-85 0 0 -100z"/>
<path d="M887 223 c-3 -7 -2 -162 2 -185 0 -5 39 -8 86 -8 78 0 85 2 85 20 0
18 -7 20 -56 20 -52 0 -55 1 -52 23 2 18 10 23 46 25 27 2 42 8 42 17 0 16
-22 25 -47 19 -25 -6 -47 11 -40 30 5 12 20 16 57 16 38 0 50 4 50 15 0 12
-16 15 -84 15 -47 0 -87 -3 -89 -7z"/>
<path d="M1090 130 l0 -100 30 0 c28 0 29 1 32 58 l3 57 18 -58 c16 -53 20
-58 44 -55 22 3 30 12 47 63 l21 60 3 -62 c3 -62 3 -63 32 -63 l30 0 0 101 0
100 -47 -3 c-45 -3 -47 -4 -61 -45 -7 -24 -17 -43 -22 -43 -4 0 -13 20 -19 45
l-11 45 -50 0 -50 0 0 -100z"/>
<path d="M1410 130 l0 -100 35 0 c33 0 35 2 35 34 0 32 2 35 41 41 72 12 100
64 59 105 -16 16 -33 20 -95 20 l-75 0 0 -100z m110 55 c10 -12 10 -18 0 -30
-21 -25 -40 -18 -40 15 0 33 19 40 40 15z"/>
<path d="M1630 129 l0 -100 33 3 c29 3 32 6 35 40 4 49 17 48 42 -2 18 -35 25
-40 56 -40 l35 0 -25 43 c-24 42 -25 42 -5 66 24 30 24 46 -1 71 -16 16 -33
20 -95 20 l-75 0 0 -101z m109 62 c19 -12 6 -41 -19 -41 -15 0 -20 7 -20 25 0
26 14 31 39 16z"/>
<path d="M1862 133 l3 -98 85 0 c73 0 85 2 88 18 3 14 -5 17 -53 17 -53 0 -56
1 -53 23 2 18 10 23 41 25 23 2 37 8 37 17 0 9 -14 15 -37 17 -30 2 -38 7 -38
23 0 17 8 20 53 23 37 2 52 7 52 18 0 11 -18 14 -90 14 l-91 0 3 -97z"/>
<path d="M2321 178 c-13 -29 -31 -74 -42 -101 l-19 -47 31 0 c22 0 32 5 36 20
8 29 79 29 88 0 5 -15 15 -20 40 -20 l34 0 -25 66 c-51 136 -50 134 -87 134
-32 0 -36 -4 -56 -52z m63 -34 c10 -26 7 -34 -15 -34 -15 0 -19 4 -15 16 3 9
6 20 6 25 0 15 17 10 24 -7z"/>
</g>
</svg>
