<?xml version="1.0" standalone="no"?>
<!DOCTYPE svg PUBLIC "-//W3C//DTD SVG 20010904//EN"
 "http://www.w3.org/TR/2001/REC-SVG-20010904/DTD/svg10.dtd">
<svg width="168" height="23" viewBox="0 0 168 23" fill="none" xmlns="http://www.w3.org/2000/svg">

<g transform="translate(0.000000,134.000000) scale(0.100000,-0.100000)"
fill="#000000" stroke="none">
<path d="M678 1313 c17 -2 47 -2 65 0 17 2 3 4 -33 4 -36 0 -50 -2 -32 -4z"/>
<path d="M593 1298 c-4 -7 -6 -23 -4 -36 2 -15 -5 -25 -21 -32 l-23 -10 25 3
c21 2 26 8 28 37 2 19 9 38 15 42 9 6 9 8 0 8 -6 0 -15 -6 -20 -12z"/>
<path d="M797 1300 c7 -7 9 -25 6 -41 -4 -20 -1 -30 8 -32 8 -3 47 -14 88 -27
l74 -22 23 28 23 29 54 -28 c30 -16 65 -39 78 -53 l22 -24 -22 -24 -22 -24 57
-71 c31 -39 60 -71 63 -71 4 0 16 7 27 16 18 15 18 15 -2 5 -19 -9 -27 -3 -74
55 -50 62 -52 65 -35 84 26 28 15 51 -45 93 -74 52 -95 56 -128 24 l-27 -25
-70 23 c-65 22 -70 26 -75 56 -3 18 -12 34 -20 37 -12 4 -12 2 -3 -8z"/>
<path d="M304 1202 c-85 -55 -91 -64 -64 -102 l21 -30 -52 -59 c-43 -49 -56
-58 -70 -50 -10 5 -24 9 -31 8 -7 0 3 -7 22 -16 33 -14 34 -14 54 14 12 15 37
46 58 68 l36 41 -19 24 c-10 14 -19 31 -19 38 0 7 28 30 62 52 64 42 75 50 66
50 -3 0 -31 -17 -64 -38z"/>
<path d="M407 1210 c14 -16 30 -30 35 -30 5 0 -1 14 -14 30 -12 17 -28 30 -35
30 -8 0 -2 -12 14 -30z"/>
<path d="M485 1205 c-39 -17 -21 -18 25 0 19 7 28 14 20 14 -8 0 -28 -6 -45
-14z"/>
<path d="M566 1134 c-244 -59 -412 -296 -376 -531 49 -318 427 -506 735 -366
56 25 117 64 111 71 -3 2 -12 0 -20 -7 -15 -12 -32 0 -81 57 -16 20 -17 25 -5
33 13 9 13 10 0 8 -30 -3 -38 2 -74 48 -32 41 -36 53 -31 83 4 19 11 39 16 44
5 6 9 18 9 29 0 10 5 15 10 12 6 -4 8 -10 5 -15 -3 -4 1 -23 9 -41 l14 -32 17
39 c9 21 20 46 25 54 4 9 11 30 15 48 3 18 10 32 13 32 9 0 52 -98 59 -135 9
-48 22 -58 43 -32 9 12 21 33 25 47 4 14 16 45 27 70 11 25 24 54 28 65 5 11
18 41 29 66 23 49 26 69 12 69 -4 0 -23 -37 -41 -82 -17 -46 -41 -102 -51
-125 -11 -24 -24 -55 -30 -70 -8 -19 -13 -23 -16 -13 -3 8 -18 49 -34 91 -17
42 -31 91 -31 108 -1 35 -13 43 -15 10 -1 -11 -11 -39 -21 -62 -11 -23 -25
-59 -32 -80 -14 -46 -25 -39 -38 23 -7 36 -11 41 -16 25 -34 -94 -61 -155 -68
-155 -4 0 -8 3 -8 8 0 4 -14 23 -32 42 -17 19 -40 45 -51 57 l-19 22 88 98
c107 119 101 112 144 163 19 23 54 62 78 88 49 53 49 52 -40 98 -102 52 -260
68 -382 38z m84 -39 c0 -2 -20 -13 -45 -24 -25 -11 -45 -26 -45 -32 0 -10 -3
-10 -12 -1 -9 10 -9 15 2 26 18 17 100 43 100 31z m128 0 c-12 -12 -102 -54
-107 -49 -8 8 18 28 52 41 34 12 64 17 55 8z m122 0 c0 -2 -18 -14 -40 -25
-22 -11 -40 -26 -40 -32 0 -9 -3 -9 -12 0 -15 15 0 32 45 49 37 13 47 15 47 8z
m-280 -115 c0 -6 -4 -10 -10 -10 -5 0 -10 -7 -10 -16 0 -11 5 -14 18 -9 91 37
123 47 130 40 4 -4 1 -10 -5 -12 -11 -4 -19 -33 -9 -33 8 0 72 29 78 36 12 12
68 15 68 4 0 -6 -4 -10 -10 -10 -5 0 -10 -25 -10 -55 l0 -55 -189 0 -190 0
-21 31 c-12 16 -21 31 -19 33 2 1 30 13 62 25 31 13 57 26 57 30 0 3 14 7 30
8 17 1 30 -2 30 -7z m-260 -135 c0 -10 -10 -15 -31 -15 -17 0 -28 -4 -24 -10
3 -5 18 -10 31 -10 34 0 26 -24 -9 -28 -21 -3 -27 -9 -27 -28 0 -19 -5 -24
-25 -24 -24 0 -25 2 -25 65 l0 65 55 0 c42 0 55 -3 55 -15z m98 -91 c12 -8 22
-19 22 -23 0 -14 -37 -20 -48 -9 -15 15 -42 2 -42 -20 0 -30 24 -46 40 -27 14
17 20 18 40 5 24 -15 -16 -50 -57 -50 -67 0 -96 68 -48 115 28 29 61 32 93 9z
m127 -154 c0 -10 -14 -17 -40 -21 l-40 -6 38 -2 c46 -1 54 -31 8 -31 -17 0
-33 -4 -36 -10 -4 -6 10 -10 35 -10 34 0 41 -3 38 -17 -2 -14 -15 -19 -61 -21
l-57 -3 0 71 0 71 58 -3 c43 -2 57 -7 57 -18z m128 -145 c1 -5 -13 -11 -30
-13 -42 -4 -43 -22 -2 -22 38 0 35 -24 -4 -28 -21 -3 -27 -9 -27 -28 0 -19 -5
-24 -25 -24 -24 0 -25 2 -25 65 l0 66 55 -3 c30 -2 56 -7 58 -13z m109 -140
l26 -65 -29 0 c-16 0 -29 5 -29 10 0 6 -11 10 -25 10 -14 0 -25 -4 -25 -10 0
-5 -12 -10 -26 -10 -17 0 -24 4 -21 13 48 115 49 117 77 117 24 0 30 -7 52
-65z"/>
<path d="M516 923 c-17 -17 -4 -33 28 -33 32 0 55 14 43 26 -8 8 -64 13 -71 7z"/>
<path d="M646 923 c-17 -17 -3 -33 28 -33 38 0 53 12 33 27 -14 11 -52 14 -61
6z m54 -13 c0 -5 -5 -10 -11 -10 -5 0 -7 5 -4 10 3 6 8 10 11 10 2 0 4 -4 4
-10z"/>
<path d="M770 915 c-14 -17 -2 -25 37 -25 27 0 34 4 31 18 -4 20 -53 25 -68 7z
m25 -5 c3 -5 1 -10 -4 -10 -6 0 -11 5 -11 10 0 6 2 10 4 10 3 0 8 -4 11 -10z
m35 0 c0 -5 -4 -10 -10 -10 -5 0 -10 5 -10 10 0 6 5 10 10 10 6 0 10 -4 10
-10z"/>
<path d="M760 316 c0 -9 5 -16 10 -16 6 0 10 4 10 9 0 6 -4 13 -10 16 -5 3
-10 -1 -10 -9z"/>
<path d="M1072 980 c0 -14 2 -19 5 -12 2 6 2 18 0 25 -3 6 -5 1 -5 -13z"/>
<path d="M1332 928 c11 -23 27 -64 35 -91 16 -53 10 -66 -29 -67 -26 0 -31
-16 -31 -104 l0 -81 31 -10 c17 -6 34 -14 38 -17 9 -9 -34 -133 -55 -160 -17
-20 -21 -21 -51 -8 -29 12 -33 12 -43 -6 -6 -10 -30 -40 -54 -65 -24 -25 -43
-50 -43 -54 0 -5 10 -20 23 -33 l22 -24 -34 -28 c-18 -16 -53 -39 -77 -52
l-44 -23 -24 29 -23 30 -74 -23 c-41 -12 -80 -24 -87 -27 -8 -2 -12 -16 -10
-36 2 -27 -1 -33 -22 -39 -32 -9 -109 -11 -148 -3 -27 5 -31 11 -34 42 -3 35
-4 36 -82 59 l-78 24 -27 -25 c-15 -14 -31 -26 -35 -26 -20 0 -136 86 -136
101 0 9 9 24 20 34 21 19 20 19 -13 54 -19 20 -44 51 -57 69 -16 25 -28 32
-41 28 -11 -3 -28 -9 -38 -12 -22 -7 -41 22 -71 112 -20 58 -17 67 31 79 26 6
27 8 26 96 0 88 -1 90 -26 96 -48 11 -51 19 -31 77 10 29 25 67 34 84 9 18 12
32 7 32 -11 0 -59 -117 -63 -156 -3 -24 2 -31 32 -45 l34 -16 1 -77 0 -76 -32
-11 c-17 -5 -34 -17 -37 -25 -6 -17 37 -148 56 -171 9 -11 24 -14 55 -9 24 3
43 2 43 -2 0 -4 21 -31 46 -60 l46 -53 -21 -23 c-13 -14 -19 -29 -15 -39 5
-15 138 -107 154 -107 3 0 19 13 35 30 22 23 32 27 46 20 10 -6 42 -16 71 -24
50 -13 53 -15 53 -45 0 -17 7 -36 15 -41 22 -14 193 -13 208 2 7 7 12 25 12
40 0 16 6 30 13 32 6 2 39 12 73 23 l61 19 25 -28 c18 -20 31 -26 44 -21 29
10 118 70 139 93 18 20 18 21 -5 44 l-22 25 47 60 c47 60 48 60 90 54 50 -6
52 -3 91 110 26 77 23 91 -24 100 -28 6 -28 6 -28 86 0 79 0 80 27 86 48 11
51 25 25 102 -28 82 -43 113 -55 113 -5 0 0 -19 11 -42z"/>
<path d="M1070 921 c0 -25 6 -27 13 -6 4 8 2 17 -3 20 -6 4 -10 -3 -10 -14z"/>
<path d="M1120 924 c0 -8 5 -12 10 -9 6 4 8 11 5 16 -9 14 -15 11 -15 -7z"/>
<path d="M1072 870 c0 -14 2 -19 5 -12 2 6 2 18 0 25 -3 6 -5 1 -5 -13z"/>
<path d="M1122 830 c0 -19 2 -27 5 -17 2 9 2 25 0 35 -3 9 -5 1 -5 -18z"/>
<path d="M808 704 c-2 -42 0 -78 4 -80 3 -2 8 32 10 76 2 44 0 80 -4 80 -3 0
-8 -34 -10 -76z"/>
<path d="M1072 720 c0 -14 2 -19 5 -12 2 6 2 18 0 25 -3 6 -5 1 -5 -13z"/>
<path d="M758 633 c7 -3 16 -2 19 1 4 3 -2 6 -13 5 -11 0 -14 -3 -6 -6z"/>
<path d="M965 590 c-3 -5 -1 -10 4 -10 6 0 11 5 11 10 0 6 -2 10 -4 10 -3 0
-8 -4 -11 -10z"/>
<path d="M965 540 c-3 -5 -1 -10 4 -10 6 0 11 5 11 10 0 6 -2 10 -4 10 -3 0
-8 -4 -11 -10z"/>
<path d="M1122 530 c0 -14 2 -19 5 -12 2 6 2 18 0 25 -3 6 -5 1 -5 -13z"/>
<path d="M1176 504 c-4 -9 -4 -19 -1 -22 2 -3 7 3 11 12 4 9 4 19 1 22 -2 3
-7 -3 -11 -12z"/>
<path d="M965 490 c3 -5 8 -10 11 -10 2 0 4 5 4 10 0 6 -5 10 -11 10 -5 0 -7
-4 -4 -10z"/>
<path d="M1072 440 c0 -19 2 -27 5 -17 2 9 2 25 0 35 -3 9 -5 1 -5 -18z"/>
<path d="M1121 454 c0 -11 3 -14 6 -6 3 7 2 16 -1 19 -3 4 -6 -2 -5 -13z"/>
<path d="M965 440 c3 -5 8 -10 11 -10 2 0 4 5 4 10 0 6 -5 10 -11 10 -5 0 -7
-4 -4 -10z"/>
<path d="M1145 440 c-3 -5 -1 -10 4 -10 6 0 11 5 11 10 0 6 -2 10 -4 10 -3 0
-8 -4 -11 -10z"/>
<path d="M1120 405 c-7 -9 -11 -18 -8 -20 3 -3 11 1 18 10 7 9 11 18 8 20 -3
3 -11 -1 -18 -10z"/>
<path d="M1070 385 c0 -8 2 -15 4 -15 2 0 6 7 10 15 3 8 1 15 -4 15 -6 0 -10
-7 -10 -15z"/>
<path d="M1064 339 c-19 -22 -19 -22 4 -10 12 6 22 16 22 21 0 15 -5 12 -26
-11z"/>
</g>
</svg>
