<?xml version="1.0" standalone="no"?>
<svg width="24" height="24" viewBox="0 0 24 24" fill="none" xmlns="http://www.w3.org/2000/svg">
    <path d="M15.5 19.75L14.9141 18.3569L14.2656 19.0931L11.5001 22.125V3.75H12.7501V21.1875L14.2656 19.9062L15.5 19.75Z" fill="#000000"/>
    <path d="M18.25 9.375H17V8.125H18.25V9.375ZM18.25 12.625H17V11.375H18.25V12.625ZM18.25 15.875H17V14.625H18.25V15.875Z" fill="#000000"/>
    <path d="M7.875 12.625H9.125V11.375H7.875V12.625ZM7.875 15.875H9.125V14.625H7.875V15.875ZM7.875 9.375H9.125V8.125H7.875V9.375Z" fill="#000000"/>
    <path d="M3.25 18.25H4.5V16.0625L7.11875 12.6672C8.23781 11.2328 9.28969 10.1081 9.99969 9.375H14.7497C15.4597 10.1081 16.5116 11.2328 17.6306 12.6672L20.2494 16.0625V18.25H21.5V21.25H2.25V18.25H3.25ZM12.0001 3.75C11.236 3.75 10.5 4.401 10.5 5.25C10.5 6.099 11.236 6.75 12.0001 6.75C12.7642 6.75 13.5001 6.099 13.5001 5.25C13.5001 4.401 12.7642 3.75 12.0001 3.75ZM12.0001 5.625C11.7236 5.625 11.5 5.84864 11.5 6.125C11.5 6.40136 11.7236 6.625 12.0001 6.625C12.2765 6.625 12.5001 6.40136 12.5001 6.125C12.5001 5.84864 12.2765 5.625 12.0001 5.625Z" fill="#000000"/>
</svg>
